<svg width="45" height="45" viewBox="0 0 45 45" fill="none" xmlns="http://www.w3.org/2000/svg">
<path d="M43.4 19.95L24.3833 0.933334C23.8 0.35 22.9833 0 22.1667 0C21.35 0 20.5333 0.35 19.95 0.933334L15.8667 5.01667L20.65 9.8C21.1167 9.56667 21.5833 9.45 22.1667 9.45C24.15 9.45 25.6667 10.9667 25.6667 12.95C25.6667 13.5333 25.55 14 25.3167 14.4667L29.9833 19.1333C30.45 18.9 30.9167 18.7833 31.5 18.7833C33.4833 18.7833 35 20.3 35 22.2833C35 24.2667 33.4833 25.7833 31.5 25.7833C29.5167 25.7833 28 24.2667 28 22.2833C28 21.7 28.1167 21.2333 28.35 20.7667L23.6833 16.1C23.5667 16.1 23.45 16.2167 23.3333 16.2167V28.35C24.7333 28.8167 25.6667 30.1 25.6667 31.6167C25.6667 33.6 24.15 35.1167 22.1667 35.1167C20.1833 35.1167 18.6667 33.6 18.6667 31.6167C18.6667 30.1 19.6 28.8167 21 28.35V16.1C19.6 15.6333 18.6667 14.35 18.6667 12.8333C18.6667 12.25 18.7833 11.7833 19.0167 11.3167L14.2333 6.53333L0.933334 19.95C0.35 20.5333 0 21.35 0 22.1667C0 22.9833 0.35 23.8 0.933334 24.3833L19.95 43.4C20.5333 43.9833 21.35 44.3333 22.1667 44.3333C22.9833 44.3333 23.8 43.9833 24.3833 43.4L43.4 24.3833C43.9833 23.8 44.3333 22.9833 44.3333 22.1667C44.3333 21.35 43.9833 20.5333 43.4 19.95Z" fill="black"/>
</svg>
