<svg width="53" height="55" viewBox="0 0 53 55" fill="none" xmlns="http://www.w3.org/2000/svg">
<path fill-rule="evenodd" clip-rule="evenodd" d="M31.1834 0C30.8004 0 30.4448 0.0849529 30.1166 0.198217C30.8141 0.6796 31.197 1.31673 31.3885 2.0388C31.4022 2.13791 31.4296 2.2087 31.4433 2.30781C31.457 2.39276 31.4706 2.47771 31.4706 2.56266C31.5253 3.80859 31.156 3.96434 30.8962 4.70057C30.4995 5.64918 30.6089 6.66858 31.0876 7.48977C31.1287 7.58887 31.1834 7.70214 31.2518 7.80125C30.732 4.21919 33.6179 3.68117 34.1513 2.56266C34.1923 1.58574 33.4127 0.934451 32.7973 0.481383C32.2091 0.113267 31.6757 0 31.1834 0ZM35.5326 0.807026C35.4779 1.13267 35.5189 1.04772 35.5053 1.21762C35.4916 1.33088 35.4916 1.47247 35.478 1.58573C35.4506 1.699 35.4232 1.81227 35.3822 1.92554C35.3549 2.0388 35.3139 2.15207 35.2728 2.26533C35.2181 2.37861 35.1771 2.47771 35.1224 2.59098C35.0813 2.64763 35.054 2.70424 35.013 2.76088C34.9856 2.80335 34.9582 2.84583 34.9309 2.8883C34.8625 2.98742 34.7941 3.08652 34.7257 3.17147C34.6437 3.25642 34.5753 3.35553 34.4796 3.42632V3.4405C34.3975 3.51129 34.3154 3.59624 34.2197 3.66703C33.9325 3.89356 33.6042 4.06346 33.3033 4.27584C33.2076 4.34663 33.1119 4.40327 33.0298 4.48822C32.9341 4.55901 32.852 4.6298 32.7699 4.71475C32.6742 4.7997 32.6058 4.88465 32.5238 4.98376C32.4554 5.06871 32.3733 5.16782 32.3186 5.26693C32.2502 5.36603 32.1818 5.46514 32.1271 5.56425C32.0724 5.67751 32.0314 5.77663 31.9767 5.88989C31.9356 6.00315 31.8946 6.10227 31.8673 6.21553C31.8262 6.34296 31.7989 6.45623 31.7715 6.5695C31.7578 6.62615 31.7578 6.69692 31.7442 6.75355C31.7305 6.81021 31.7305 6.86682 31.7169 6.92345C31.7169 7.03672 31.7032 7.16414 31.7032 7.27741C31.7032 7.36236 31.7032 7.44731 31.7169 7.53226C31.7169 7.64553 31.7306 7.75879 31.7579 7.88622C31.7716 7.99948 31.7989 8.11275 31.8263 8.22602C31.8673 8.33929 31.8947 8.45255 31.9357 8.56582C31.963 8.63662 32.0041 8.7074 32.0314 8.76403L28.8857 7.50394C28.3523 7.3482 27.8326 7.20662 27.2992 7.07919C27.012 7.0084 26.7248 6.93761 26.4375 6.86682C25.6169 6.69692 24.7826 6.5695 23.9483 6.48455C23.921 6.48455 23.9073 6.47037 23.88 6.47037C23.0593 6.38542 22.2524 6.34295 21.4318 6.34295C20.83 6.34295 20.2282 6.37124 19.6401 6.41373C18.8058 6.47039 17.9715 6.58364 17.1372 6.72522C16.9321 6.75351 16.7269 6.79601 16.5217 6.83849C16.0978 6.92343 15.6875 7.02254 15.2908 7.12165C15.0857 7.17831 14.8805 7.23492 14.6754 7.29155C14.4702 7.3765 14.2787 7.47561 14.0872 7.56056C13.9368 7.63135 13.7864 7.70214 13.6359 7.77294C13.6086 7.78712 13.5812 7.78712 13.5675 7.80123C13.4308 7.87202 13.3077 7.92865 13.1846 7.99945C13.1435 8.01363 13.1162 8.02774 13.0888 8.04193C12.9384 8.11272 12.7879 8.19766 12.6648 8.26846C12.5691 8.31093 12.4734 8.36757 12.3913 8.41004C12.3503 8.43834 12.2956 8.4667 12.2682 8.48083C12.1451 8.55162 12.022 8.62241 11.9126 8.69321C11.7895 8.764 11.6801 8.83479 11.5844 8.90558C11.4886 8.97638 11.3929 9.03301 11.3108 9.10379C11.2971 9.11797 11.2835 9.11797 11.2698 9.13209C11.1877 9.18875 11.092 9.25952 11.0099 9.33031C11.0099 9.33031 10.9962 9.34449 10.9826 9.35861C10.9142 9.41526 10.8458 9.47187 10.7774 9.5285C10.7501 9.54268 10.7227 9.57098 10.6954 9.58516C10.627 9.64182 10.5586 9.71259 10.4902 9.76922C10.4765 9.79752 10.4492 9.8117 10.4355 9.82588C10.3534 9.91083 10.2714 9.98162 10.1893 10.0666C10.1756 10.0666 10.1756 10.0807 10.162 10.0949C10.0799 10.1657 9.99786 10.2506 9.9158 10.3356C9.9021 10.3497 9.9021 10.3638 9.88846 10.3638C9.82008 10.4346 9.7517 10.5054 9.68331 10.5904C9.65598 10.6187 9.61492 10.647 9.58757 10.6753C9.51919 10.7603 9.43713 10.8452 9.35507 10.9302C9.34136 10.9585 9.31403 10.9727 9.30034 11.001C9.19092 11.1142 9.09518 11.2275 8.98577 11.3408C8.97207 11.355 8.95843 11.3691 8.94473 11.3833C8.7259 11.6239 8.49339 11.8646 8.24721 12.077C8.00102 12.3035 7.74116 12.5159 7.4813 12.7C7.20776 12.8982 6.9479 13.0681 6.66068 13.238C6.38714 13.3937 6.09992 13.5353 5.79903 13.6627C5.51181 13.7902 5.21092 13.9034 4.91003 14.0025C4.33559 14.13 3.74748 14.3707 3.24144 14.4131C3.13202 14.4131 3.00893 14.4414 2.89952 14.4556C2.77642 14.4839 2.66701 14.5123 2.55759 14.5406C2.44818 14.583 2.33876 14.6255 2.22934 14.668C2.11993 14.7105 2.01051 14.7671 1.9011 14.8237C1.80536 14.8945 1.69594 14.9512 1.6002 15.0219C1.50447 15.0927 1.40873 15.1777 1.32666 15.2626C1.23093 15.3334 1.13519 15.4325 1.05312 15.5175C0.971062 15.6166 0.889 15.7015 0.820617 15.8006C0.752233 15.9139 0.670171 16.013 0.615461 16.1263C0.547077 16.2254 0.478694 16.3387 0.423984 16.4519C0.369254 16.5794 0.31457 16.6926 0.273538 16.8201C0.232507 16.9333 0.191476 17.0607 0.150445 17.1882C0.123112 17.3014 0.0957152 17.4147 0.0820617 17.528C0.0820617 17.5422 0.0683637 17.5563 0.0683637 17.5704C0.0410309 17.6979 0.0410309 17.8678 0.0273323 17.9527C0.0136343 18.0518 0 18.1368 0 18.2359C0 18.2925 4.25774e-08 18.3633 0.013698 18.4199C0.0273961 18.5191 0.0410303 18.604 0.0684277 18.689C0.0957602 18.7739 0.123157 18.8589 0.164163 18.9438V18.958C0.205194 19.0429 0.259904 19.1279 0.314608 19.2128C0.369338 19.2978 0.424029 19.3827 0.492412 19.4677C0.560795 19.5385 0.642858 19.6234 0.72492 19.6942C0.806983 19.7792 0.889045 19.85 0.98478 19.9208C1.31303 20.2181 1.39509 20.3172 1.81908 20.5437C1.88746 20.5862 1.95585 20.6145 2.03791 20.657C2.05161 20.657 2.06524 20.6712 2.07894 20.6712C2.07894 20.6995 2.07894 20.7136 2.09264 20.742C2.10634 20.8552 2.13367 20.9685 2.16103 21.0818C2.18836 21.2092 2.22942 21.3225 2.27045 21.4216C2.31148 21.5065 2.33883 21.5915 2.37986 21.6764C2.39356 21.7047 2.4072 21.7331 2.42089 21.7472C2.47562 21.8605 2.53031 21.9596 2.58501 22.0587C2.6534 22.1578 2.72178 22.2569 2.79017 22.356C2.85855 22.441 2.94061 22.5401 3.02268 22.625C3.10474 22.71 3.1868 22.7808 3.28254 22.8657C3.28254 22.8657 3.29624 22.8799 3.30987 22.8799C3.39194 22.9507 3.474 23.0215 3.55606 23.0781C3.6518 23.1489 3.74754 23.2055 3.85695 23.2622C3.95269 23.3188 4.06211 23.3755 4.17152 23.4179C4.25359 23.4604 4.34932 23.4887 4.44506 23.517C4.45876 23.5312 4.47239 23.5312 4.49979 23.5453C4.55452 23.5595 4.62288 23.5736 4.67759 23.5878C4.63656 24.3524 4.62286 25.0744 4.73232 25.3293C4.85541 25.6125 5.45719 24.7488 6.05898 23.7577C5.97692 24.7346 5.92221 25.8815 6.05898 26.2213C6.20943 26.5752 7.03005 25.4709 7.74125 24.2532C17.4382 21.9313 26.2872 28.8689 27.2172 38.6664C27.0394 37.1373 25.2204 36.2878 24.3861 36.5002C23.9758 37.5479 23.2783 38.893 22.1568 39.7283C22.2525 38.7939 22.2115 37.8311 22.02 36.8967C21.7191 38.1992 21.131 39.4168 20.3241 40.4646C19.0247 40.5637 17.7254 39.9124 17.0416 38.9355C16.9868 38.893 16.9732 38.808 16.9322 38.7514C16.8911 38.6523 16.8501 38.5532 16.8227 38.4541C16.7817 38.355 16.7544 38.2559 16.7407 38.1567C16.727 38.0576 16.727 37.9585 16.727 37.8453C16.727 37.7745 16.727 37.7037 16.727 37.6329C16.7407 37.5338 16.768 37.4347 16.7954 37.3356C16.8227 37.2365 16.8501 37.1373 16.8911 37.0382C16.9458 36.9391 16.9868 36.84 17.0552 36.7409C17.2877 36.0613 17.2877 35.5091 16.8638 35.1835C16.7817 35.1268 16.6996 35.0844 16.6039 35.0419C16.5492 35.0277 16.4808 34.9994 16.4261 34.9853C16.3851 34.9711 16.3577 34.957 16.3167 34.9428C16.2209 34.9145 16.1252 34.8861 16.0295 34.872C15.9337 34.8437 15.838 34.8295 15.7422 34.8295C15.6465 34.8153 15.5371 34.8012 15.4414 34.8012C15.373 34.8012 15.3046 34.8154 15.2362 34.8154C15.1268 34.8154 15.031 34.8296 14.9353 34.8579C14.8396 34.8721 14.7438 34.8862 14.6481 34.9145C14.5524 34.9428 14.4566 34.9712 14.3609 35.0136C14.2651 35.0561 14.1831 35.0986 14.0873 35.1411C14.0053 35.1835 13.9232 35.2402 13.8275 35.2826C10.6407 37.4347 12.5418 42.4751 14.7165 43.9334C13.8959 44.0891 13.0616 44.2732 12.8291 44.4572C12.8154 44.4714 12.8017 44.4855 12.8017 44.4855C13.3898 44.8537 14.0053 45.1651 14.6481 45.4341C15.5234 45.7315 16.4535 46.0005 16.8638 46.1138V46.1279C17.999 46.3686 19.1478 46.4536 20.3104 46.3828C26.3693 45.9439 31.334 41.1725 32.2367 34.8862C32.264 35.0136 32.2914 35.1269 32.3188 35.2543C32.3598 35.5092 32.4145 35.7782 32.4418 36.0472V36.0614C32.4692 36.1888 32.4829 36.3162 32.4966 36.4295V36.4862C32.5103 36.6136 32.5239 36.741 32.5239 36.8543C32.5376 37.01 32.5512 37.1658 32.5512 37.3215V37.548C32.5512 37.6188 32.5649 37.7038 32.5649 37.7746C32.5649 37.8595 32.5512 37.9445 32.5512 38.0294V38.2276C32.5512 38.3267 32.5375 38.4117 32.5375 38.5108C32.5375 38.5674 32.5375 38.6241 32.5238 38.6949C32.5238 38.794 32.5101 38.8931 32.5101 39.0063C32.4964 39.0488 32.4964 39.0913 32.4964 39.1338C32.4827 39.247 32.4691 39.3461 32.4554 39.4594C32.4554 39.5019 32.4554 39.5444 32.4417 39.5868C32.428 39.7284 32.4007 39.8558 32.387 39.9974V40.0116V40.0258C32.3596 40.1532 32.3322 40.2948 32.3049 40.4222V40.4647C32.2776 40.5921 32.2502 40.7196 32.2228 40.847C32.2228 40.8612 32.2091 40.8895 32.2091 40.9036C32.1818 41.0311 32.1544 41.1585 32.1134 41.2859V41.3284C32.0724 41.47 32.0313 41.5974 32.004 41.7248C31.9903 41.739 31.9903 41.7531 31.9903 41.7531C31.9493 41.8947 31.9082 42.0363 31.8672 42.1779C31.8125 42.3194 31.7715 42.4469 31.7168 42.5885C31.662 42.73 31.621 42.8716 31.5663 42.999C31.5116 43.1406 31.4569 43.2681 31.4022 43.4096H31.3885C31.3337 43.5371 31.2791 43.6787 31.2107 43.8061C31.197 43.8485 31.1833 43.8769 31.1696 43.9052C31.1559 43.9194 31.1559 43.9335 31.1423 43.9477C30.2533 45.8024 28.9403 47.4306 27.2991 48.7049C27.1897 48.7757 27.0803 48.8606 26.9708 48.9456C26.9435 48.9738 26.9025 48.988 26.8751 49.0163C26.7794 49.0871 26.6836 49.1579 26.5742 49.2287L26.6152 49.3137H26.6289C26.8204 49.2854 27.0119 49.257 27.2034 49.2287H27.2171C27.5727 49.1721 27.9283 49.1013 28.2839 49.0305C28.3796 49.0163 28.489 48.988 28.5848 48.9597C28.6531 48.9455 28.7078 48.9314 28.7762 48.9172C28.872 48.903 28.9677 48.8748 29.0635 48.8606C29.1455 48.8323 29.2276 48.8181 29.3096 48.7898C30.6773 48.45 32.004 47.9828 33.2759 47.4306C31.1013 50.5029 28.1881 52.9807 24.7826 54.6089C26.3554 54.4956 27.9283 54.2266 29.4464 53.7735C34.9582 52.0887 39.5947 48.2518 42.3711 43.084C41.8104 46.3546 40.5521 49.4694 38.692 52.1878C40.0187 51.2817 41.2359 50.2339 42.3438 49.0446C45.4074 45.7316 47.4179 41.5266 48.1018 37.01C48.5668 39.2471 48.7036 41.5549 48.4984 43.8344C58.3732 29.5769 49.319 14.7956 45.5305 10.9021C45.5168 10.8738 45.5032 10.8596 45.5032 10.8313C45.4895 10.8454 45.4895 10.8454 45.4895 10.8596C45.4895 10.8454 45.4895 10.8454 45.4758 10.8313C45.4758 11.0012 45.4621 11.1711 45.4484 11.341C45.4074 11.6666 45.3664 11.9781 45.3117 12.2896C45.2433 12.6011 45.1612 12.9125 45.0792 13.224C44.9834 13.5213 44.874 13.8328 44.7509 14.1302C44.6278 14.4133 44.491 14.7106 44.3406 14.9938C44.1902 15.2628 44.026 15.546 43.8482 15.8008C43.6704 16.0698 43.479 16.3247 43.2875 16.5654C43.0823 16.8202 42.8635 17.0468 42.6447 17.2733C42.5079 17.4007 42.3848 17.514 42.248 17.6273C42.1386 17.7264 42.0429 17.8113 41.9335 17.9104C41.6873 18.1086 41.4411 18.2927 41.1675 18.4626C40.9077 18.6325 40.6342 18.8024 40.3606 18.944C40.0734 19.0856 39.7862 19.213 39.499 19.3404C39.2117 19.4537 38.9109 19.5528 38.6099 19.6377C38.3091 19.7227 37.9945 19.7935 37.6936 19.8501C37.379 19.9068 37.0645 19.9351 36.7636 19.9634C36.5447 19.9776 36.3259 19.9917 36.1071 19.9917C35.7925 19.9917 35.4779 19.9634 35.177 19.935C34.8625 19.9067 34.5479 19.8642 34.247 19.7934C33.9324 19.7368 33.6315 19.6519 33.3306 19.5528H33.317C33.6178 19.5245 33.9187 19.4961 34.2196 19.4395C34.5342 19.3828 34.8351 19.3121 35.136 19.2271C35.4369 19.1422 35.7378 19.043 36.025 18.9298C36.3259 18.8165 36.6131 18.6749 36.8866 18.5333C37.1739 18.3918 37.4337 18.236 37.7073 18.0661C37.9671 17.8821 38.227 17.698 38.4732 17.4998C38.7194 17.3016 38.9519 17.0892 39.1707 16.8627C39.4032 16.6503 39.6084 16.4096 39.8135 16.1689C40.0187 15.9141 40.2101 15.6592 40.3879 15.4044C40.4153 15.3619 40.4427 15.3053 40.47 15.2628C40.6068 15.0362 40.7435 14.8097 40.8666 14.5832C41.0171 14.3 41.1539 14.0168 41.2769 13.7195C41.4 13.4222 41.5095 13.1249 41.6052 12.8134C41.7009 12.5161 41.7693 12.2046 41.8377 11.8931C41.8924 11.5674 41.9471 11.256 41.9745 10.9445C42.0018 10.6188 42.0292 10.2932 42.0292 9.98171C42.0292 9.75518 42.0155 9.52865 42.0019 9.30211C41.9745 8.97647 41.9335 8.66499 41.8925 8.3535C41.8377 8.02786 41.7694 7.71638 41.6873 7.40489C41.5916 7.10757 41.4958 6.79608 41.3864 6.49876C41.277 6.20143 41.1402 5.90411 41.0034 5.62094C40.853 5.33777 40.7026 5.05461 40.5384 4.7856C40.3606 4.5166 40.1828 4.26174 39.9914 4.00689C39.7862 3.7662 39.581 3.52551 39.3622 3.28482C39.2528 3.17155 39.1297 3.04412 39.0066 2.93086C38.3911 2.43531 37.7483 1.96809 37.1055 1.54334C37.0098 1.48668 36.9277 1.44423 36.832 1.40175C36.3806 1.10443 35.9566 0.948606 35.5326 0.807026Z" fill="black"/>
</svg>
